<?xml version="1.0" encoding="utf-8"?>
<!-- Generator: Adobe Illustrator 18.0.0, SVG Export Plug-In . SVG Version: 6.00 Build 0)  -->
<!DOCTYPE svg PUBLIC "-//W3C//DTD SVG 1.1//EN" "http://www.w3.org/Graphics/SVG/1.1/DTD/svg11.dtd">
<svg version="1.1" id="logo" xmlns="http://www.w3.org/2000/svg" xmlns:xlink="http://www.w3.org/1999/xlink" x="0px" y="0px"
	 viewBox="0 0 240 50" enable-background="new 0 0 240 50" xml:space="preserve">
<g>
	<path fill="#457C3E" d="M20.5,28.8c-0.6,0-1.1-0.2-1.5-0.6L7.7,16.6c-0.8-0.8-0.8-2.1,0-2.9L19.1,2.2c0.4-0.4,0.9-0.6,1.5-0.6
		c0.6,0,1.1,0.2,1.5,0.6l11.4,11.5c0.8,0.8,0.8,2.1,0,2.9L22,28.1C21.6,28.5,21.1,28.8,20.5,28.8z M20.5,1.7c-0.5,0-1,0.2-1.4,0.6
		L7.7,13.8c-0.8,0.8-0.8,2,0,2.8l11.4,11.5c0.4,0.4,0.9,0.6,1.4,0.6c0.5,0,1-0.2,1.4-0.6l11.4-11.5c0.8-0.8,0.8-2,0-2.8L21.9,2.3
		C21.6,1.9,21.1,1.7,20.5,1.7z"/>
</g>
<g>
	<path fill="#396C30" d="M23.2,28.2c-1.4,1.4-3.7,1.5-5,0.1L7.4,17.5c-1.3-1.4-1.3-3.6,0.1-5L17.9,2.1c1.4-1.4,3.7-1.5,5-0.1
		l10.8,10.9c1.3,1.4,1.3,3.6-0.1,5L23.2,28.2z"/>
</g>
<g>
	<g>
		<polygon fill="#F9B500" points="26.8,16.2 17.1,14.1 14.1,15.3 14.1,21.9 23.7,24.3 26.8,22.8 		"/>
	</g>
	<g>
		<polygon fill="#F28E06" points="17.3,14.1 14.1,15.3 23.9,17.4 26.8,16.2 		"/>
	</g>
	<g>
		<polygon fill="#F28E06" points="17.4,14.2 14.4,15.4 23.8,17.5 26.7,16.3 		"/>
	</g>
	<g>
		<polygon fill="#D88000" points="14.1,15.6 14.1,21.9 23.6,24.2 23.6,17.7 		"/>
	</g>
</g>
<g>
	<g>
		<defs>
			<path id="SVGID_1_" d="M12.9,11c0,0-0.5-5.2,4.8-4.1l8.7,2c0,0,1.6,0.3,1.6,2.7l-0.2,0.1l-4.3-1c0,0-0.6,0.7-0.8,2.8h-0.3
				L12.9,11z"/>
		</defs>
		<clipPath id="SVGID_2_">
			<use xlink:href="#SVGID_1_"  overflow="visible"/>
		</clipPath>
		<polygon clip-path="url(#SVGID_2_)" fill="#FFF5A1" points="28,9.1 13.9,5.8 28,5.8 		"/>
		<polygon clip-path="url(#SVGID_2_)" fill="#FFF5A1" points="28,9.1 13.9,5.8 13.9,5.8 28,9.1 		"/>
		<polygon clip-path="url(#SVGID_2_)" fill="#FFF4A0" points="28,9.1 13.9,5.8 13.9,5.8 28,9.1 		"/>
		<polygon clip-path="url(#SVGID_2_)" fill="#FFF39F" points="28,9.2 13.8,5.8 13.9,5.8 28,9.1 		"/>
		<polygon clip-path="url(#SVGID_2_)" fill="#FFF29E" points="28,9.2 13.8,5.8 13.8,5.8 28,9.2 		"/>
		<polygon clip-path="url(#SVGID_2_)" fill="#FFF19D" points="28,9.2 13.8,5.8 13.8,5.8 28,9.2 		"/>
		<polygon clip-path="url(#SVGID_2_)" fill="#FEF19C" points="28,9.2 13.8,5.8 13.8,5.8 28,9.2 		"/>
		<polygon clip-path="url(#SVGID_2_)" fill="#FEF09B" points="28,9.2 13.7,5.8 13.8,5.8 28,9.2 		"/>
		<polygon clip-path="url(#SVGID_2_)" fill="#FEEF9A" points="28,9.2 13.7,5.8 13.7,5.8 28,9.2 		"/>
		<polygon clip-path="url(#SVGID_2_)" fill="#FEEE99" points="28,9.2 13.7,5.8 13.7,5.8 28,9.2 		"/>
		<polygon clip-path="url(#SVGID_2_)" fill="#FEED98" points="28,9.2 13.6,5.8 13.7,5.8 28,9.2 		"/>
		<polygon clip-path="url(#SVGID_2_)" fill="#FEEC97" points="28,9.2 13.6,5.8 13.6,5.8 28,9.2 		"/>
		<polygon clip-path="url(#SVGID_2_)" fill="#FEEB96" points="28,9.2 13.6,5.8 13.6,5.8 28,9.2 		"/>
		<polygon clip-path="url(#SVGID_2_)" fill="#FEEA95" points="28,9.2 13.5,5.8 13.6,5.8 28,9.2 		"/>
		<polygon clip-path="url(#SVGID_2_)" fill="#FEEA94" points="28,9.2 13.5,5.8 13.5,5.8 28,9.2 		"/>
		<polygon clip-path="url(#SVGID_2_)" fill="#FDE993" points="28,9.2 13.5,5.8 13.5,5.8 28,9.2 		"/>
		<polygon clip-path="url(#SVGID_2_)" fill="#FDE892" points="28,9.3 13.5,5.8 13.5,5.8 28,9.2 		"/>
		<polygon clip-path="url(#SVGID_2_)" fill="#FDE791" points="28,9.3 13.4,5.8 13.5,5.8 28,9.3 		"/>
		<polygon clip-path="url(#SVGID_2_)" fill="#FDE690" points="28,9.3 13.4,5.8 13.4,5.8 28,9.3 		"/>
		<polygon clip-path="url(#SVGID_2_)" fill="#FDE58F" points="28,9.3 13.4,5.8 13.4,5.8 28,9.3 		"/>
		<polygon clip-path="url(#SVGID_2_)" fill="#FDE48E" points="28,9.3 13.3,5.8 13.4,5.8 28,9.3 		"/>
		<polygon clip-path="url(#SVGID_2_)" fill="#FDE38D" points="28,9.3 13.3,5.8 13.3,5.8 28,9.3 		"/>
		<polygon clip-path="url(#SVGID_2_)" fill="#FDE38C" points="28,9.3 13.3,5.8 13.3,5.8 28,9.3 		"/>
		<polygon clip-path="url(#SVGID_2_)" fill="#FDE28B" points="28,9.3 13.2,5.8 13.3,5.8 28,9.3 		"/>
		<polygon clip-path="url(#SVGID_2_)" fill="#FCE18A" points="28,9.3 13.2,5.8 13.2,5.8 28,9.3 		"/>
		<polygon clip-path="url(#SVGID_2_)" fill="#FCE089" points="28,9.3 13.2,5.8 13.2,5.8 28,9.3 		"/>
		<polygon clip-path="url(#SVGID_2_)" fill="#FCDF88" points="28,9.3 13.1,5.8 13.2,5.8 28,9.3 		"/>
		<polygon clip-path="url(#SVGID_2_)" fill="#FCDE87" points="28,9.3 13.1,5.8 13.1,5.8 28,9.3 		"/>
		<polygon clip-path="url(#SVGID_2_)" fill="#FCDD86" points="28,9.3 13.1,5.8 13.1,5.8 28,9.3 		"/>
		<polygon clip-path="url(#SVGID_2_)" fill="#FCDC85" points="28,9.3 13.1,5.8 13.1,5.8 28,9.3 		"/>
		<polygon clip-path="url(#SVGID_2_)" fill="#FCDB84" points="28,9.4 13,5.8 13.1,5.8 28,9.3 		"/>
		<polygon clip-path="url(#SVGID_2_)" fill="#FCDB83" points="28,9.4 13,5.8 13,5.8 28,9.4 		"/>
		<polygon clip-path="url(#SVGID_2_)" fill="#FCDA82" points="28,9.4 13,5.8 13,5.8 28,9.4 		"/>
		<polygon clip-path="url(#SVGID_2_)" fill="#FBD981" points="28,9.4 12.9,5.8 13,5.8 28,9.4 		"/>
		<polygon clip-path="url(#SVGID_2_)" fill="#FBD880" points="28,9.4 12.9,5.8 12.9,5.8 28,9.4 		"/>
		<polygon clip-path="url(#SVGID_2_)" fill="#FBD77F" points="28,9.4 12.9,5.8 12.9,5.8 28,9.4 		"/>
		<polygon clip-path="url(#SVGID_2_)" fill="#FBD67E" points="28,9.4 12.8,5.8 12.9,5.8 28,9.4 		"/>
		<polygon clip-path="url(#SVGID_2_)" fill="#FBD57D" points="28,9.4 12.8,5.8 12.8,5.8 28,9.4 		"/>
		<polygon clip-path="url(#SVGID_2_)" fill="#FBD47C" points="28,9.4 12.8,5.8 12.8,5.8 28,9.4 		"/>
		<polygon clip-path="url(#SVGID_2_)" fill="#FBD47B" points="28,9.4 12.7,5.8 12.8,5.8 28,9.4 		"/>
		<polygon clip-path="url(#SVGID_2_)" fill="#FBD37A" points="28,9.4 12.7,5.8 12.7,5.8 28,9.4 		"/>
		<polygon clip-path="url(#SVGID_2_)" fill="#FBD279" points="28,9.4 12.7,5.8 12.7,5.8 28,9.4 		"/>
		<polygon clip-path="url(#SVGID_2_)" fill="#FAD178" points="28,9.4 12.7,5.8 12.7,5.8 28,9.4 		"/>
		<polygon clip-path="url(#SVGID_2_)" fill="#FAD077" points="28,9.5 12.6,5.8 12.7,5.8 28,9.4 		"/>
		<polygon clip-path="url(#SVGID_2_)" fill="#FACF76" points="28,9.5 12.6,5.8 12.6,5.8 28,9.5 		"/>
		<polygon clip-path="url(#SVGID_2_)" fill="#FACE75" points="28,9.5 12.6,5.8 12.6,5.8 28,9.5 		"/>
		<polygon clip-path="url(#SVGID_2_)" fill="#FACD74" points="28,9.5 12.5,5.8 12.6,5.8 28,9.5 		"/>
		<polygon clip-path="url(#SVGID_2_)" fill="#FACC73" points="28,9.5 12.5,5.8 12.5,5.8 28,9.5 		"/>
		<polygon clip-path="url(#SVGID_2_)" fill="#FACC72" points="28,9.5 12.5,5.8 12.5,5.8 28,9.5 		"/>
		<polygon clip-path="url(#SVGID_2_)" fill="#FACB71" points="28,9.5 12.4,5.8 12.5,5.8 28,9.5 		"/>
		<polygon clip-path="url(#SVGID_2_)" fill="#FACA70" points="28,9.5 12.4,5.8 12.4,5.8 28,9.5 		"/>
		<polygon clip-path="url(#SVGID_2_)" fill="#F9C96F" points="28,9.5 12.4,5.8 12.4,5.8 12.4,5.8 28,9.5 		"/>
		
			<rect x="12.2" y="7.6" transform="matrix(0.9724 0.2334 -0.2334 0.9724 2.3407 -4.5)" clip-path="url(#SVGID_2_)" fill="#F9C86E" width="16" height="0"/>
		
			<rect x="12.2" y="7.6" transform="matrix(0.9724 0.2334 -0.2334 0.9724 2.3424 -4.4998)" clip-path="url(#SVGID_2_)" fill="#F9C76D" width="16" height="0"/>
		
			<rect x="12.2" y="7.7" transform="matrix(0.9724 0.2334 -0.2334 0.9724 2.3441 -4.4996)" clip-path="url(#SVGID_2_)" fill="#F9C66C" width="16" height="0"/>
		
			<rect x="12.2" y="7.7" transform="matrix(0.9724 0.2334 -0.2334 0.9724 2.3459 -4.4994)" clip-path="url(#SVGID_2_)" fill="#F9C56B" width="16" height="0"/>
		
			<rect x="12.2" y="7.7" transform="matrix(0.9724 0.2334 -0.2334 0.9724 2.3476 -4.4992)" clip-path="url(#SVGID_2_)" fill="#F9C569" width="16" height="0"/>
		
			<rect x="12.2" y="7.7" transform="matrix(0.9724 0.2334 -0.2334 0.9724 2.3493 -4.499)" clip-path="url(#SVGID_2_)" fill="#F9C468" width="16" height="0"/>
		
			<rect x="12.2" y="7.7" transform="matrix(0.9724 0.2334 -0.2334 0.9724 2.351 -4.4988)" clip-path="url(#SVGID_2_)" fill="#F9C367" width="16" height="0"/>
		
			<rect x="12.2" y="7.7" transform="matrix(0.9724 0.2334 -0.2334 0.9724 2.3527 -4.4986)" clip-path="url(#SVGID_2_)" fill="#F9C266" width="16" height="0"/>
		
			<rect x="12.2" y="7.7" transform="matrix(0.9724 0.2334 -0.2334 0.9724 2.3544 -4.4984)" clip-path="url(#SVGID_2_)" fill="#F9C165" width="16" height="0"/>
		
			<rect x="12.2" y="7.7" transform="matrix(0.9724 0.2334 -0.2334 0.9724 2.3562 -4.4982)" clip-path="url(#SVGID_2_)" fill="#F8C064" width="16" height="0"/>
		
			<rect x="12.2" y="7.7" transform="matrix(0.9724 0.2334 -0.2334 0.9724 2.3579 -4.498)" clip-path="url(#SVGID_2_)" fill="#F8BF63" width="16" height="0"/>
		
			<rect x="12.2" y="7.7" transform="matrix(0.9724 0.2334 -0.2334 0.9724 2.3596 -4.4978)" clip-path="url(#SVGID_2_)" fill="#F8BE62" width="16" height="0"/>
		
			<rect x="12.2" y="7.7" transform="matrix(0.9724 0.2334 -0.2334 0.9724 2.3613 -4.4976)" clip-path="url(#SVGID_2_)" fill="#F8BE61" width="16" height="0"/>
		
			<rect x="12.2" y="7.7" transform="matrix(0.9724 0.2334 -0.2334 0.9724 2.363 -4.4974)" clip-path="url(#SVGID_2_)" fill="#F8BD60" width="16" height="0"/>
		
			<rect x="12.2" y="7.7" transform="matrix(0.9724 0.2334 -0.2334 0.9724 2.3648 -4.4972)" clip-path="url(#SVGID_2_)" fill="#F8BC5F" width="16" height="0"/>
		
			<rect x="12.2" y="7.7" transform="matrix(0.9724 0.2334 -0.2334 0.9724 2.3665 -4.497)" clip-path="url(#SVGID_2_)" fill="#F8BB5E" width="16" height="0"/>
		
			<rect x="12.2" y="7.8" transform="matrix(0.9724 0.2334 -0.2334 0.9724 2.3682 -4.4968)" clip-path="url(#SVGID_2_)" fill="#F8BA5D" width="16" height="0"/>
		
			<rect x="12.2" y="7.8" transform="matrix(0.9724 0.2334 -0.2334 0.9724 2.3699 -4.4966)" clip-path="url(#SVGID_2_)" fill="#F8B95C" width="16" height="0"/>
		
			<rect x="12.2" y="7.8" transform="matrix(0.9724 0.2334 -0.2334 0.9724 2.3716 -4.4964)" clip-path="url(#SVGID_2_)" fill="#F7B85B" width="16" height="0"/>
		
			<rect x="12.2" y="7.8" transform="matrix(0.9724 0.2334 -0.2334 0.9724 2.3733 -4.4962)" clip-path="url(#SVGID_2_)" fill="#F7B75A" width="16" height="0"/>
		
			<rect x="12.2" y="7.8" transform="matrix(0.9724 0.2334 -0.2334 0.9724 2.3751 -4.4959)" clip-path="url(#SVGID_2_)" fill="#F7B659" width="16" height="0"/>
		
			<rect x="12.2" y="7.8" transform="matrix(0.9724 0.2334 -0.2334 0.9724 2.3768 -4.4957)" clip-path="url(#SVGID_2_)" fill="#F7B658" width="16" height="0"/>
		
			<rect x="12.2" y="7.8" transform="matrix(0.9724 0.2334 -0.2334 0.9724 2.3785 -4.4955)" clip-path="url(#SVGID_2_)" fill="#F7B557" width="16" height="0"/>
		
			<rect x="12.2" y="7.8" transform="matrix(0.9724 0.2334 -0.2334 0.9724 2.3802 -4.4953)" clip-path="url(#SVGID_2_)" fill="#F7B456" width="16" height="0"/>
		
			<rect x="12.2" y="7.8" transform="matrix(0.9724 0.2334 -0.2334 0.9724 2.3819 -4.4951)" clip-path="url(#SVGID_2_)" fill="#F7B355" width="16" height="0"/>
		
			<rect x="12.2" y="7.8" transform="matrix(0.9724 0.2334 -0.2334 0.9724 2.3836 -4.4949)" clip-path="url(#SVGID_2_)" fill="#F7B254" width="16" height="0"/>
		
			<rect x="12.2" y="7.8" transform="matrix(0.9724 0.2334 -0.2334 0.9724 2.3854 -4.4947)" clip-path="url(#SVGID_2_)" fill="#F7B153" width="16" height="0"/>
		
			<rect x="12.2" y="7.8" transform="matrix(0.9724 0.2334 -0.2334 0.9724 2.3871 -4.4945)" clip-path="url(#SVGID_2_)" fill="#F6B052" width="16" height="0"/>
		
			<rect x="12.2" y="7.8" transform="matrix(0.9724 0.2334 -0.2334 0.9724 2.3888 -4.4943)" clip-path="url(#SVGID_2_)" fill="#F6AF51" width="16" height="0"/>
		
			<rect x="12.2" y="7.9" transform="matrix(0.9724 0.2334 -0.2334 0.9724 2.3905 -4.4941)" clip-path="url(#SVGID_2_)" fill="#F6AF50" width="16" height="0"/>
		
			<rect x="12.2" y="7.9" transform="matrix(0.9724 0.2334 -0.2334 0.9724 2.3922 -4.4939)" clip-path="url(#SVGID_2_)" fill="#F6AE4F" width="16" height="0"/>
		
			<rect x="12.2" y="7.9" transform="matrix(0.9724 0.2334 -0.2334 0.9724 2.3939 -4.4937)" clip-path="url(#SVGID_2_)" fill="#F6AD4E" width="16" height="0"/>
		
			<rect x="12.2" y="7.9" transform="matrix(0.9724 0.2334 -0.2334 0.9724 2.3957 -4.4935)" clip-path="url(#SVGID_2_)" fill="#F6AC4D" width="16" height="0"/>
		
			<rect x="12.2" y="7.9" transform="matrix(0.9724 0.2334 -0.2334 0.9724 2.3974 -4.4933)" clip-path="url(#SVGID_2_)" fill="#F6AB4C" width="16" height="0"/>
		
			<rect x="12.2" y="7.9" transform="matrix(0.9724 0.2334 -0.2334 0.9724 2.3991 -4.4931)" clip-path="url(#SVGID_2_)" fill="#F6AA4B" width="16" height="0"/>
		
			<rect x="12.2" y="7.9" transform="matrix(0.9724 0.2334 -0.2334 0.9724 2.4008 -4.4929)" clip-path="url(#SVGID_2_)" fill="#F6A94A" width="16" height="0"/>
		
			<rect x="12.2" y="7.9" transform="matrix(0.9724 0.2334 -0.2334 0.9724 2.4025 -4.4927)" clip-path="url(#SVGID_2_)" fill="#F5A849" width="16" height="0"/>
		
			<rect x="12.2" y="7.9" transform="matrix(0.9724 0.2334 -0.2334 0.9724 2.4043 -4.4925)" clip-path="url(#SVGID_2_)" fill="#F5A748" width="16" height="0"/>
		
			<rect x="12.2" y="7.9" transform="matrix(0.9724 0.2334 -0.2334 0.9724 2.406 -4.4923)" clip-path="url(#SVGID_2_)" fill="#F5A747" width="16" height="0"/>
		
			<rect x="12.2" y="7.9" transform="matrix(0.9724 0.2334 -0.2334 0.9724 2.4077 -4.4921)" clip-path="url(#SVGID_2_)" fill="#F5A646" width="16" height="0"/>
		
			<rect x="12.2" y="7.9" transform="matrix(0.9724 0.2334 -0.2334 0.9724 2.4094 -4.4919)" clip-path="url(#SVGID_2_)" fill="#F5A545" width="16" height="0"/>
		
			<rect x="12.2" y="7.9" transform="matrix(0.9724 0.2334 -0.2334 0.9724 2.4111 -4.4917)" clip-path="url(#SVGID_2_)" fill="#F5A444" width="16" height="0"/>
		
			<rect x="12.2" y="7.9" transform="matrix(0.9724 0.2334 -0.2334 0.9724 2.4128 -4.4915)" clip-path="url(#SVGID_2_)" fill="#F5A343" width="16" height="0"/>
		
			<rect x="12.2" y="8" transform="matrix(0.9724 0.2334 -0.2334 0.9724 2.4146 -4.4913)" clip-path="url(#SVGID_2_)" fill="#F5A242" width="16" height="0"/>
		
			<rect x="12.2" y="8" transform="matrix(0.9724 0.2334 -0.2334 0.9724 2.4163 -4.4911)" clip-path="url(#SVGID_2_)" fill="#F5A141" width="16" height="0"/>
		
			<rect x="12.2" y="8" transform="matrix(0.9724 0.2334 -0.2334 0.9724 2.418 -4.4909)" clip-path="url(#SVGID_2_)" fill="#F4A040" width="16" height="0"/>
		
			<rect x="12.2" y="8" transform="matrix(0.9724 0.2334 -0.2334 0.9724 2.4197 -4.4907)" clip-path="url(#SVGID_2_)" fill="#F4A03F" width="16" height="0"/>
		
			<rect x="12.2" y="8" transform="matrix(0.9724 0.2334 -0.2334 0.9724 2.4214 -4.4905)" clip-path="url(#SVGID_2_)" fill="#F49F3E" width="16" height="0"/>
		
			<rect x="12.2" y="8" transform="matrix(0.9724 0.2334 -0.2334 0.9724 2.4231 -4.4903)" clip-path="url(#SVGID_2_)" fill="#F49E3D" width="16" height="0"/>
		
			<rect x="12.2" y="8" transform="matrix(0.9724 0.2334 -0.2334 0.9724 2.4249 -4.4901)" clip-path="url(#SVGID_2_)" fill="#F49D3C" width="16" height="0"/>
		
			<rect x="12.2" y="8" transform="matrix(0.9724 0.2334 -0.2334 0.9724 2.4266 -4.4899)" clip-path="url(#SVGID_2_)" fill="#F49C3B" width="16" height="0"/>
		
			<rect x="12.2" y="8" transform="matrix(0.9724 0.2334 -0.2334 0.9724 2.4283 -4.4896)" clip-path="url(#SVGID_2_)" fill="#F49B3A" width="16" height="0"/>
		
			<rect x="12.2" y="8" transform="matrix(0.9724 0.2334 -0.2334 0.9724 2.43 -4.4894)" clip-path="url(#SVGID_2_)" fill="#F49A39" width="16" height="0"/>
		
			<rect x="12.2" y="8" transform="matrix(0.9724 0.2334 -0.2334 0.9724 2.4317 -4.4892)" clip-path="url(#SVGID_2_)" fill="#F49938" width="16" height="0"/>
		
			<rect x="12.2" y="8" transform="matrix(0.9724 0.2334 -0.2334 0.9724 2.4334 -4.489)" clip-path="url(#SVGID_2_)" fill="#F39937" width="16" height="0"/>
		
			<rect x="12.2" y="8" transform="matrix(0.9724 0.2334 -0.2334 0.9724 2.4352 -4.4888)" clip-path="url(#SVGID_2_)" fill="#F39836" width="16" height="0"/>
		
			<rect x="12.2" y="8" transform="matrix(0.9724 0.2334 -0.2334 0.9724 2.4369 -4.4886)" clip-path="url(#SVGID_2_)" fill="#F39735" width="16" height="0"/>
		
			<rect x="12.2" y="8.1" transform="matrix(0.9724 0.2334 -0.2334 0.9724 2.4386 -4.4884)" clip-path="url(#SVGID_2_)" fill="#F39634" width="16" height="0"/>
		
			<rect x="12.2" y="8.1" transform="matrix(0.9724 0.2334 -0.2334 0.9724 2.4403 -4.4882)" clip-path="url(#SVGID_2_)" fill="#F39533" width="16" height="0"/>
		<polygon clip-path="url(#SVGID_2_)" fill="#F39533" points="28,10 12.4,6.2 12.4,6.2 28,9.9 		"/>
		<polygon clip-path="url(#SVGID_2_)" fill="#F29433" points="28,10 12.4,6.3 12.4,6.2 28,10 		"/>
		<polygon clip-path="url(#SVGID_2_)" fill="#F19433" points="28,10 12.4,6.3 12.4,6.3 28,10 		"/>
		<polygon clip-path="url(#SVGID_2_)" fill="#F09332" points="28,10.1 12.4,6.3 12.4,6.3 28,10 		"/>
		<polygon clip-path="url(#SVGID_2_)" fill="#EF9232" points="28,10.1 12.4,6.3 12.4,6.3 28,10.1 		"/>
		<polygon clip-path="url(#SVGID_2_)" fill="#EE9232" points="28,10.1 12.4,6.4 12.4,6.3 28,10.1 		"/>
		<polygon clip-path="url(#SVGID_2_)" fill="#ED9132" points="28,10.1 12.4,6.4 12.4,6.4 28,10.1 		"/>
		<polygon clip-path="url(#SVGID_2_)" fill="#EC9031" points="28,10.2 12.4,6.4 12.4,6.4 28,10.1 		"/>
		<polygon clip-path="url(#SVGID_2_)" fill="#EB9031" points="28,10.2 12.4,6.4 12.4,6.4 28,10.2 		"/>
		<polygon clip-path="url(#SVGID_2_)" fill="#EA8F31" points="28,10.2 12.4,6.5 12.4,6.4 28,10.2 		"/>
		<polygon clip-path="url(#SVGID_2_)" fill="#E98E31" points="28,10.2 12.4,6.5 12.4,6.5 28,10.2 		"/>
		<polygon clip-path="url(#SVGID_2_)" fill="#E88E30" points="28,10.3 12.4,6.5 12.4,6.5 28,10.2 		"/>
		<polygon clip-path="url(#SVGID_2_)" fill="#E78D30" points="28,10.3 12.4,6.6 12.4,6.5 28,10.3 		"/>
		<polygon clip-path="url(#SVGID_2_)" fill="#E68C30" points="28,10.3 12.4,6.6 12.4,6.6 28,10.3 		"/>
		<polygon clip-path="url(#SVGID_2_)" fill="#E58C30" points="28,10.4 12.4,6.6 12.4,6.6 28,10.3 		"/>
		<polygon clip-path="url(#SVGID_2_)" fill="#E48B2F" points="28,10.4 12.4,6.6 12.4,6.6 28,10.4 		"/>
		<polygon clip-path="url(#SVGID_2_)" fill="#E38A2F" points="28,10.4 12.4,6.7 12.4,6.6 28,10.4 		"/>
		<polygon clip-path="url(#SVGID_2_)" fill="#E2892F" points="28,10.4 12.4,6.7 12.4,6.7 28,10.4 		"/>
		<polygon clip-path="url(#SVGID_2_)" fill="#E1892F" points="28,10.5 12.4,6.7 12.4,6.7 28,10.4 		"/>
		<polygon clip-path="url(#SVGID_2_)" fill="#E0882F" points="28,10.5 12.4,6.7 12.4,6.7 28,10.5 		"/>
		<polygon clip-path="url(#SVGID_2_)" fill="#DF872E" points="28,10.5 12.4,6.8 12.4,6.7 28,10.5 		"/>
		<polygon clip-path="url(#SVGID_2_)" fill="#DE872E" points="28,10.5 12.4,6.8 12.4,6.8 28,10.5 		"/>
		<polygon clip-path="url(#SVGID_2_)" fill="#DD862E" points="28,10.6 12.4,6.8 12.4,6.8 28,10.5 		"/>
		<polygon clip-path="url(#SVGID_2_)" fill="#DC852E" points="28,10.6 12.4,6.9 12.4,6.8 28,10.6 		"/>
		<polygon clip-path="url(#SVGID_2_)" fill="#DB852D" points="28,10.6 12.4,6.9 12.4,6.9 28,10.6 		"/>
		<polygon clip-path="url(#SVGID_2_)" fill="#DA842D" points="28,10.7 12.4,6.9 12.4,6.9 28,10.6 		"/>
		<polygon clip-path="url(#SVGID_2_)" fill="#D9832D" points="28,10.7 12.4,6.9 12.4,6.9 28,10.7 		"/>
		<polygon clip-path="url(#SVGID_2_)" fill="#D8832D" points="28,10.7 12.4,7 12.4,6.9 28,10.7 		"/>
		<polygon clip-path="url(#SVGID_2_)" fill="#D7822C" points="28,10.7 12.4,7 12.4,7 28,10.7 		"/>
		<polygon clip-path="url(#SVGID_2_)" fill="#D6812C" points="28,10.8 12.4,7 12.4,7 28,10.7 		"/>
		<polygon clip-path="url(#SVGID_2_)" fill="#D5812C" points="28,10.8 12.4,7.1 12.4,7 28,10.8 		"/>
		<polygon clip-path="url(#SVGID_2_)" fill="#D4802C" points="28,10.8 12.4,7.1 12.4,7.1 28,10.8 		"/>
		<polygon clip-path="url(#SVGID_2_)" fill="#D37F2B" points="28,10.9 12.4,7.1 12.4,7.1 28,10.8 		"/>
		<polygon clip-path="url(#SVGID_2_)" fill="#D27F2B" points="28,10.9 12.4,7.1 12.4,7.1 28,10.9 		"/>
		<polygon clip-path="url(#SVGID_2_)" fill="#D17E2B" points="28,10.9 12.4,7.2 12.4,7.1 28,10.9 		"/>
		<polygon clip-path="url(#SVGID_2_)" fill="#D07D2B" points="28,10.9 12.4,7.2 12.4,7.2 28,10.9 		"/>
		<polygon clip-path="url(#SVGID_2_)" fill="#CF7D2A" points="28,11 12.4,7.2 12.4,7.2 28,10.9 		"/>
		<polygon clip-path="url(#SVGID_2_)" fill="#CE7C2A" points="28,11 12.4,7.2 12.4,7.2 28,11 		"/>
		<polygon clip-path="url(#SVGID_2_)" fill="#CD7B2A" points="28,11 12.4,7.3 12.4,7.2 28,11 		"/>
		<polygon clip-path="url(#SVGID_2_)" fill="#CC7B2A" points="28,11 12.4,7.3 12.4,7.3 28,11 		"/>
		<polygon clip-path="url(#SVGID_2_)" fill="#CB7A2A" points="28,11.1 12.4,7.3 12.4,7.3 28,11 		"/>
		<polygon clip-path="url(#SVGID_2_)" fill="#CA7929" points="28,11.1 12.4,7.4 12.4,7.3 28,11.1 		"/>
		<polygon clip-path="url(#SVGID_2_)" fill="#C97929" points="28,11.1 12.4,7.4 12.4,7.4 28,11.1 		"/>
		<polygon clip-path="url(#SVGID_2_)" fill="#C87829" points="28,11.2 12.4,7.4 12.4,7.4 28,11.1 		"/>
		<polygon clip-path="url(#SVGID_2_)" fill="#C77729" points="28,11.2 12.4,7.4 12.4,7.4 28,11.2 		"/>
		<polygon clip-path="url(#SVGID_2_)" fill="#C67728" points="28,11.2 12.4,7.5 12.4,7.4 28,11.2 		"/>
		<polygon clip-path="url(#SVGID_2_)" fill="#C57628" points="28,11.2 12.4,7.5 12.4,7.5 28,11.2 		"/>
		<polygon clip-path="url(#SVGID_2_)" fill="#C47528" points="28,11.3 12.4,7.5 12.4,7.5 28,11.2 		"/>
		<polygon clip-path="url(#SVGID_2_)" fill="#C37428" points="28,11.3 12.4,7.5 12.4,7.5 28,11.3 		"/>
		<polygon clip-path="url(#SVGID_2_)" fill="#C27427" points="28,11.3 12.4,7.6 12.4,7.5 28,11.3 		"/>
		<polygon clip-path="url(#SVGID_2_)" fill="#C17327" points="28,11.3 12.4,7.6 12.4,7.6 28,11.3 		"/>
		<polygon clip-path="url(#SVGID_2_)" fill="#C07227" points="28,11.4 12.4,7.6 12.4,7.6 28,11.3 		"/>
		<polygon clip-path="url(#SVGID_2_)" fill="#BF7227" points="28,11.4 12.4,7.7 12.4,7.6 28,11.4 		"/>
		<polygon clip-path="url(#SVGID_2_)" fill="#BE7126" points="28,11.4 12.4,7.7 12.4,7.7 28,11.4 		"/>
		<polygon clip-path="url(#SVGID_2_)" fill="#BD7026" points="28,11.5 12.4,7.7 12.4,7.7 28,11.4 		"/>
		<polygon clip-path="url(#SVGID_2_)" fill="#BC7026" points="28,11.5 12.4,7.7 12.4,7.7 28,11.5 		"/>
		<polygon clip-path="url(#SVGID_2_)" fill="#BB6F26" points="28,11.5 12.4,7.8 12.4,7.7 28,11.5 		"/>
		<polygon clip-path="url(#SVGID_2_)" fill="#BA6E26" points="28,11.5 12.4,7.8 12.4,7.8 28,11.5 		"/>
		<polygon clip-path="url(#SVGID_2_)" fill="#B96E25" points="28,11.6 12.4,7.8 12.4,7.8 28,11.5 		"/>
		<polygon clip-path="url(#SVGID_2_)" fill="#B86D25" points="28,11.6 12.4,7.8 12.4,7.8 28,11.6 		"/>
		<polygon clip-path="url(#SVGID_2_)" fill="#B76C25" points="28,11.6 12.4,7.9 12.4,7.8 28,11.6 		"/>
		<polygon clip-path="url(#SVGID_2_)" fill="#B66C25" points="28,11.6 12.4,7.9 12.4,7.9 28,11.6 		"/>
		<polygon clip-path="url(#SVGID_2_)" fill="#B56B24" points="28,11.7 12.4,7.9 12.4,7.9 28,11.6 		"/>
		<polygon clip-path="url(#SVGID_2_)" fill="#B46A24" points="28,11.7 12.4,8 12.4,7.9 28,11.7 		"/>
		<polygon clip-path="url(#SVGID_2_)" fill="#B36A24" points="28,11.7 12.4,8 12.4,8 28,11.7 		"/>
		<polygon clip-path="url(#SVGID_2_)" fill="#B26924" points="28,11.7 28,11.8 12.4,8 12.4,8 28,11.7 		"/>
		<polygon clip-path="url(#SVGID_2_)" fill="#B16823" points="28,11.8 28,11.8 12.4,8 12.4,8 		"/>
		<polygon clip-path="url(#SVGID_2_)" fill="#B06823" points="28,11.8 28,11.8 12.4,8.1 12.4,8 		"/>
		<polygon clip-path="url(#SVGID_2_)" fill="#AF6723" points="28,11.8 28,11.8 12.4,8.1 12.4,8.1 		"/>
		<polygon clip-path="url(#SVGID_2_)" fill="#AE6623" points="28,11.8 28,11.9 12.4,8.1 12.4,8.1 		"/>
		<polygon clip-path="url(#SVGID_2_)" fill="#AD6622" points="28,11.9 28,11.9 12.4,8.2 12.4,8.1 		"/>
		<polygon clip-path="url(#SVGID_2_)" fill="#AC6522" points="28,11.9 27.9,11.9 12.4,8.2 12.4,8.2 		"/>
		<polygon clip-path="url(#SVGID_2_)" fill="#AB6422" points="27.9,11.9 27.9,11.9 12.4,8.2 12.4,8.2 		"/>
		<polygon clip-path="url(#SVGID_2_)" fill="#AA6422" points="27.9,11.9 27.9,12 12.4,8.2 12.4,8.2 		"/>
		<polygon clip-path="url(#SVGID_2_)" fill="#A96321" points="27.9,12 27.9,12 12.4,8.3 12.4,8.2 		"/>
		<polygon clip-path="url(#SVGID_2_)" fill="#A86221" points="27.9,12 27.9,12 12.4,8.3 12.4,8.3 		"/>
		<polygon clip-path="url(#SVGID_2_)" fill="#A76221" points="27.9,12 27.9,12 12.4,8.3 12.4,8.3 		"/>
		<polygon clip-path="url(#SVGID_2_)" fill="#A66121" points="27.9,12 27.9,12.1 12.4,8.3 12.4,8.3 		"/>
		<polygon clip-path="url(#SVGID_2_)" fill="#A56021" points="27.9,12.1 27.9,12.1 12.4,8.4 12.4,8.3 		"/>
		<polygon clip-path="url(#SVGID_2_)" fill="#A45F20" points="27.9,12.1 27.9,12.1 12.4,8.4 12.4,8.4 		"/>
		<polygon clip-path="url(#SVGID_2_)" fill="#A35F20" points="27.9,12.1 27.9,12.1 12.4,8.4 12.4,8.4 		"/>
		<polygon clip-path="url(#SVGID_2_)" fill="#A25E20" points="27.9,12.1 27.9,12.2 12.4,8.5 12.4,8.4 		"/>
		<polygon clip-path="url(#SVGID_2_)" fill="#A15D20" points="27.9,12.2 27.9,12.2 12.4,8.5 12.4,8.5 		"/>
		<polygon clip-path="url(#SVGID_2_)" fill="#A05D1F" points="27.9,12.2 27.9,12.2 12.4,8.5 12.4,8.5 		"/>
		<polygon clip-path="url(#SVGID_2_)" fill="#9F5C1F" points="27.9,12.2 27.9,12.3 12.4,8.5 12.4,8.5 		"/>
		<polygon clip-path="url(#SVGID_2_)" fill="#9E5B1F" points="27.9,12.3 27.9,12.3 12.4,8.6 12.4,8.5 		"/>
		<polygon clip-path="url(#SVGID_2_)" fill="#9D5B1F" points="27.9,12.3 27.9,12.3 12.4,8.6 12.4,8.6 		"/>
		<polygon clip-path="url(#SVGID_2_)" fill="#9C5A1E" points="27.9,12.3 27.8,12.3 12.4,8.6 12.4,8.6 		"/>
		<polygon clip-path="url(#SVGID_2_)" fill="#9B591E" points="27.8,12.3 27.8,12.4 12.4,8.6 12.4,8.6 		"/>
		<polygon clip-path="url(#SVGID_2_)" fill="#9A591E" points="27.8,12.4 27.8,12.4 12.4,8.7 12.4,8.6 		"/>
		<polygon clip-path="url(#SVGID_2_)" fill="#99581E" points="27.8,12.4 27.8,12.4 12.4,8.7 12.4,8.7 		"/>
		<polygon clip-path="url(#SVGID_2_)" fill="#98571D" points="27.8,12.4 27.8,12.4 12.4,8.7 12.4,8.7 		"/>
		<polygon clip-path="url(#SVGID_2_)" fill="#97571D" points="27.8,12.4 27.8,12.5 12.4,8.8 12.4,8.7 		"/>
		<polygon clip-path="url(#SVGID_2_)" fill="#96561D" points="27.8,12.5 27.8,12.5 12.4,8.8 12.4,8.8 		"/>
		<polygon clip-path="url(#SVGID_2_)" fill="#94551D" points="27.8,12.5 27.8,12.5 12.4,8.8 12.4,8.8 		"/>
		<polygon clip-path="url(#SVGID_2_)" fill="#93551D" points="27.8,12.5 27.8,12.5 12.4,8.8 12.4,8.8 		"/>
		<polygon clip-path="url(#SVGID_2_)" fill="#92541C" points="27.8,12.5 27.8,12.6 12.4,8.9 12.4,8.8 		"/>
		<polygon clip-path="url(#SVGID_2_)" fill="#91531C" points="27.8,12.6 27.8,12.6 12.4,8.9 12.4,8.9 		"/>
		<polygon clip-path="url(#SVGID_2_)" fill="#90531C" points="27.8,12.6 27.8,12.6 12.4,8.9 12.4,8.9 		"/>
		<polygon clip-path="url(#SVGID_2_)" fill="#8F521C" points="27.8,12.6 27.8,12.6 12.4,8.9 12.4,8.9 		"/>
		<polygon clip-path="url(#SVGID_2_)" fill="#8E511B" points="27.8,12.6 27.8,12.7 12.4,9 12.4,8.9 		"/>
		<polygon clip-path="url(#SVGID_2_)" fill="#8D511B" points="27.8,12.7 27.8,12.7 12.4,9 12.4,9 		"/>
		<polygon clip-path="url(#SVGID_2_)" fill="#8C501B" points="27.8,12.7 27.8,12.7 12.4,9 12.4,9 		"/>
		<polygon clip-path="url(#SVGID_2_)" fill="#8B4F1B" points="27.8,12.7 27.7,12.7 12.4,9.1 12.4,9 		"/>
		<polygon clip-path="url(#SVGID_2_)" fill="#8A4F1A" points="27.7,12.7 27.7,12.8 12.4,9.1 12.4,9.1 		"/>
		<polygon clip-path="url(#SVGID_2_)" fill="#894E1A" points="27.7,12.8 27.7,12.8 12.4,9.1 12.4,9.1 		"/>
		<polygon clip-path="url(#SVGID_2_)" fill="#884D1A" points="27.7,12.8 27.7,12.8 12.4,9.1 12.4,9.1 		"/>
		<polygon clip-path="url(#SVGID_2_)" fill="#874D1A" points="27.7,12.8 27.7,12.8 12.4,9.2 12.4,9.1 		"/>
		<polygon clip-path="url(#SVGID_2_)" fill="#864C19" points="27.7,12.8 27.7,12.9 12.4,9.2 12.4,9.2 		"/>
		<polygon clip-path="url(#SVGID_2_)" fill="#854B19" points="27.7,12.9 27.7,12.9 12.4,9.2 12.4,9.2 		"/>
		<polygon clip-path="url(#SVGID_2_)" fill="#844A19" points="27.7,12.9 27.7,12.9 12.4,9.3 12.4,9.2 		"/>
		<polygon clip-path="url(#SVGID_2_)" fill="#834A19" points="27.7,12.9 27.7,13 12.4,9.3 12.4,9.3 		"/>
		<polygon clip-path="url(#SVGID_2_)" fill="#824919" points="27.7,13 27.7,13 12.4,9.3 12.4,9.3 		"/>
		<polygon clip-path="url(#SVGID_2_)" fill="#814818" points="27.7,13 27.7,13 12.4,9.3 12.4,9.3 		"/>
		<polygon clip-path="url(#SVGID_2_)" fill="#804818" points="27.7,13 27.7,13 12.4,9.4 12.4,9.3 		"/>
		<polygon clip-path="url(#SVGID_2_)" fill="#7F4718" points="27.7,13 27.7,13.1 12.4,9.4 12.4,9.4 		"/>
		<polygon clip-path="url(#SVGID_2_)" fill="#7E4618" points="27.7,13.1 27.7,13.1 12.4,9.4 12.4,9.4 		"/>
		<polygon clip-path="url(#SVGID_2_)" fill="#7D4617" points="27.7,13.1 27.7,13.1 12.4,9.4 12.4,9.4 		"/>
		<polygon clip-path="url(#SVGID_2_)" fill="#7C4517" points="27.7,13.1 27.7,13.1 12.4,9.5 12.4,9.4 		"/>
		<polygon clip-path="url(#SVGID_2_)" fill="#7B4417" points="27.7,13.1 27.6,13.2 12.4,9.5 12.4,9.5 		"/>
		<polygon clip-path="url(#SVGID_2_)" fill="#7A4417" points="27.6,13.2 27.6,13.2 12.4,9.5 12.4,9.5 		"/>
		<polygon clip-path="url(#SVGID_2_)" fill="#794316" points="27.6,13.2 27.6,13.2 12.4,9.6 12.4,9.5 		"/>
		<polygon clip-path="url(#SVGID_2_)" fill="#784216" points="27.6,13.2 27.6,13.2 12.4,9.6 12.4,9.6 		"/>
		<polygon clip-path="url(#SVGID_2_)" fill="#774216" points="27.6,13.2 27.6,13.3 12.4,9.6 12.4,9.6 		"/>
		<polygon clip-path="url(#SVGID_2_)" fill="#764116" points="27.6,13.3 27.6,13.3 12.4,9.6 12.4,9.6 		"/>
		<polygon clip-path="url(#SVGID_2_)" fill="#754015" points="27.6,13.3 27.6,13.3 12.4,9.7 12.4,9.6 		"/>
		<polygon clip-path="url(#SVGID_2_)" fill="#744015" points="27.6,13.3 27.6,13.3 12.4,9.7 12.4,9.7 		"/>
		<polygon clip-path="url(#SVGID_2_)" fill="#733F15" points="27.6,13.3 27.6,13.4 12.4,9.7 12.4,9.7 		"/>
		<polygon clip-path="url(#SVGID_2_)" fill="#723E15" points="27.6,13.4 27.6,13.4 27.5,13.4 12.4,9.7 12.4,9.7 		"/>
		<polygon clip-path="url(#SVGID_2_)" fill="#713E14" points="27.4,13.4 12.4,9.8 12.4,9.7 27.5,13.4 		"/>
		<polygon clip-path="url(#SVGID_2_)" fill="#703D14" points="27.3,13.4 12.4,9.8 12.4,9.8 27.4,13.4 		"/>
		<polygon clip-path="url(#SVGID_2_)" fill="#6F3C14" points="27.2,13.4 12.4,9.8 12.4,9.8 27.3,13.4 		"/>
		<polygon clip-path="url(#SVGID_2_)" fill="#6E3C14" points="27.1,13.4 12.4,9.9 12.4,9.8 27.2,13.4 		"/>
		<polygon clip-path="url(#SVGID_2_)" fill="#6D3B14" points="27,13.4 12.4,9.9 12.4,9.9 27.1,13.4 		"/>
		<polygon clip-path="url(#SVGID_2_)" fill="#6C3A13" points="26.8,13.4 12.4,9.9 12.4,9.9 27,13.4 		"/>
		<polygon clip-path="url(#SVGID_2_)" fill="#6B3A13" points="26.7,13.4 12.4,9.9 12.4,9.9 26.8,13.4 		"/>
		<polygon clip-path="url(#SVGID_2_)" fill="#6A3913" points="26.6,13.4 12.4,10 12.4,9.9 26.7,13.4 		"/>
		<polygon clip-path="url(#SVGID_2_)" fill="#693813" points="26.5,13.4 12.4,10 12.4,10 26.6,13.4 		"/>
		<polygon clip-path="url(#SVGID_2_)" fill="#683812" points="26.4,13.4 12.4,10 12.4,10 26.5,13.4 		"/>
		<polygon clip-path="url(#SVGID_2_)" fill="#673712" points="26.3,13.4 12.4,10 12.4,10 26.4,13.4 		"/>
		<polygon clip-path="url(#SVGID_2_)" fill="#663612" points="26.1,13.4 12.4,10.1 12.4,10 26.3,13.4 		"/>
		<polygon clip-path="url(#SVGID_2_)" fill="#653512" points="26,13.4 12.4,10.1 12.4,10.1 26.1,13.4 		"/>
		<polygon clip-path="url(#SVGID_2_)" fill="#643511" points="25.9,13.4 12.4,10.1 12.4,10.1 26,13.4 		"/>
		<polygon clip-path="url(#SVGID_2_)" fill="#633411" points="25.8,13.4 12.4,10.2 12.4,10.1 25.9,13.4 		"/>
		<polygon clip-path="url(#SVGID_2_)" fill="#623311" points="25.7,13.4 12.4,10.2 12.4,10.2 25.8,13.4 		"/>
		<polygon clip-path="url(#SVGID_2_)" fill="#613311" points="25.6,13.4 12.4,10.2 12.4,10.2 25.7,13.4 		"/>
		<polygon clip-path="url(#SVGID_2_)" fill="#603210" points="25.5,13.4 12.4,10.2 12.4,10.2 25.6,13.4 		"/>
		<polygon clip-path="url(#SVGID_2_)" fill="#5F3110" points="25.3,13.4 12.4,10.3 12.4,10.2 25.5,13.4 		"/>
		<polygon clip-path="url(#SVGID_2_)" fill="#5E3110" points="25.2,13.4 12.4,10.3 12.4,10.3 25.3,13.4 		"/>
		<polygon clip-path="url(#SVGID_2_)" fill="#5D3010" points="25.1,13.4 12.4,10.3 12.4,10.3 25.2,13.4 		"/>
		<polygon clip-path="url(#SVGID_2_)" fill="#5C2F10" points="25,13.4 12.4,10.4 12.4,10.3 25.1,13.4 		"/>
		<polygon clip-path="url(#SVGID_2_)" fill="#5B2F0F" points="24.9,13.4 12.4,10.4 12.4,10.4 25,13.4 		"/>
		<polygon clip-path="url(#SVGID_2_)" fill="#5A2E0F" points="24.8,13.4 12.4,10.4 12.4,10.4 24.9,13.4 		"/>
		<polygon clip-path="url(#SVGID_2_)" fill="#592D0F" points="24.7,13.4 12.4,10.4 12.4,10.4 24.8,13.4 		"/>
		<polygon clip-path="url(#SVGID_2_)" fill="#582D0F" points="24.5,13.4 12.4,10.5 12.4,10.4 24.7,13.4 		"/>
		<polygon clip-path="url(#SVGID_2_)" fill="#572C0E" points="24.4,13.4 12.4,10.5 12.4,10.5 24.5,13.4 		"/>
		<polygon clip-path="url(#SVGID_2_)" fill="#562B0E" points="24.3,13.4 12.4,10.5 12.4,10.5 24.4,13.4 		"/>
		<polygon clip-path="url(#SVGID_2_)" fill="#552B0E" points="24.2,13.4 12.4,10.5 12.4,10.5 24.3,13.4 		"/>
		<polygon clip-path="url(#SVGID_2_)" fill="#542A0E" points="24.1,13.4 12.4,10.6 12.4,10.5 24.2,13.4 		"/>
		<polygon clip-path="url(#SVGID_2_)" fill="#53290D" points="24,13.4 12.4,10.6 12.4,10.6 24.1,13.4 		"/>
		<polygon clip-path="url(#SVGID_2_)" fill="#52290D" points="23.9,13.4 12.4,10.6 12.4,10.6 24,13.4 		"/>
		<polygon clip-path="url(#SVGID_2_)" fill="#51280D" points="23.7,13.4 12.4,10.7 12.4,10.6 23.9,13.4 		"/>
		<polygon clip-path="url(#SVGID_2_)" fill="#50270D" points="23.6,13.4 12.4,10.7 12.4,10.7 23.7,13.4 		"/>
		<polygon clip-path="url(#SVGID_2_)" fill="#4F270C" points="23.5,13.4 12.4,10.7 12.4,10.7 23.6,13.4 		"/>
		<polygon clip-path="url(#SVGID_2_)" fill="#4E260C" points="23.4,13.4 12.4,10.7 12.4,10.7 23.5,13.4 		"/>
		<polygon clip-path="url(#SVGID_2_)" fill="#4D250C" points="23.3,13.4 12.4,10.8 12.4,10.7 23.4,13.4 		"/>
		<polygon clip-path="url(#SVGID_2_)" fill="#4C250C" points="23.2,13.4 12.4,10.8 12.4,10.8 23.3,13.4 		"/>
		<polygon clip-path="url(#SVGID_2_)" fill="#4B240B" points="23.1,13.4 12.4,10.8 12.4,10.8 23.2,13.4 		"/>
		<polygon clip-path="url(#SVGID_2_)" fill="#4A230B" points="22.9,13.4 12.4,10.8 12.4,10.8 23.1,13.4 		"/>
		<polygon clip-path="url(#SVGID_2_)" fill="#49230B" points="22.8,13.4 12.4,10.9 12.4,10.8 22.9,13.4 		"/>
		<polygon clip-path="url(#SVGID_2_)" fill="#48220B" points="22.7,13.4 12.4,10.9 12.4,10.9 22.8,13.4 		"/>
		<polygon clip-path="url(#SVGID_2_)" fill="#47210B" points="22.6,13.4 12.4,10.9 12.4,10.9 22.7,13.4 		"/>
		<polygon clip-path="url(#SVGID_2_)" fill="#46200A" points="22.5,13.4 12.4,11 12.4,10.9 22.6,13.4 		"/>
		<polygon clip-path="url(#SVGID_2_)" fill="#45200A" points="22.4,13.4 12.4,11 12.4,11 22.5,13.4 		"/>
		<polygon clip-path="url(#SVGID_2_)" fill="#441F0A" points="22.3,13.4 12.4,11 12.4,11 22.4,13.4 		"/>
		<polygon clip-path="url(#SVGID_2_)" fill="#431E0A" points="22.1,13.4 12.4,11 12.4,11 22.3,13.4 		"/>
		<polygon clip-path="url(#SVGID_2_)" fill="#421E09" points="22,13.4 12.4,11.1 12.4,11 22.1,13.4 		"/>
		<polygon clip-path="url(#SVGID_2_)" fill="#411D09" points="21.9,13.4 12.4,11.1 12.4,11.1 22,13.4 		"/>
		<polygon clip-path="url(#SVGID_2_)" fill="#401C09" points="21.8,13.4 12.4,11.1 12.4,11.1 21.9,13.4 		"/>
		<polygon clip-path="url(#SVGID_2_)" fill="#3F1C09" points="21.7,13.4 12.4,11.1 12.4,11.1 21.8,13.4 		"/>
		<polygon clip-path="url(#SVGID_2_)" fill="#3E1B08" points="21.6,13.4 12.4,11.2 12.4,11.1 21.7,13.4 		"/>
		<polygon clip-path="url(#SVGID_2_)" fill="#3D1A08" points="21.5,13.4 12.4,11.2 12.4,11.2 21.6,13.4 		"/>
		<polygon clip-path="url(#SVGID_2_)" fill="#3C1A08" points="21.3,13.4 12.4,11.2 12.4,11.2 21.5,13.4 		"/>
		<polygon clip-path="url(#SVGID_2_)" fill="#3B1908" points="21.2,13.4 12.4,11.3 12.4,11.2 21.3,13.4 		"/>
		<polygon clip-path="url(#SVGID_2_)" fill="#3A1807" points="21.1,13.4 12.4,11.3 12.4,11.3 21.2,13.4 		"/>
		<polygon clip-path="url(#SVGID_2_)" fill="#391807" points="21,13.4 12.4,11.3 12.4,11.3 21.1,13.4 		"/>
		<polygon clip-path="url(#SVGID_2_)" fill="#381707" points="20.9,13.4 12.4,11.3 12.4,11.3 21,13.4 		"/>
		<polygon clip-path="url(#SVGID_2_)" fill="#381707" points="12.4,11.3 20.9,13.4 12.4,13.4 		"/>
	</g>
</g>
<g>
	<path fill="#E4BB88" d="M25.1,8.9c0,0-2.7,0.7-2.8,4.5l0.2,0c0,0,0,0,0,0c0,0,0-3.1,2.4-4.1c0,0,2.4-1.1,2.8,2.4c0,0,0.1,0,0.2-0.1
		C28,11.5,28.1,8.2,25.1,8.9z"/>
</g>
<g>
	<g>
		
			<rect x="1.7" y="37.2" transform="matrix(0.128 0.9918 -0.9918 0.128 44.1964 24.312)" fill="#937342" width="13.1" height="0.2"/>
	</g>
	<g>
		
			<rect x="20.9" y="16.8" transform="matrix(0.1479 0.989 -0.989 0.1479 54.5534 10.7313)" fill="#937342" width="0.2" height="40.5"/>
	</g>
	<g>
		
			<rect x="8.5" y="39.6" transform="matrix(0.1357 0.9907 -0.9907 0.1357 53.3968 18.2045)" fill="#937342" width="15.5" height="0.2"/>
	</g>
	<g>
		
			<rect x="23.7" y="36.9" transform="matrix(0.128 0.9918 -0.9918 0.128 63.0478 2.2416)" fill="#937342" width="13.1" height="0.2"/>
	</g>
	<g>
		
			<rect x="25.7" y="36.4" transform="matrix(0.1349 0.9909 -0.9909 0.1349 69.1565 -6.2113)" fill="#937342" width="24.9" height="0.2"/>
	</g>
	<g>
		
			<rect x="27.4" y="20.2" transform="matrix(0.1541 0.9881 -0.9881 0.1541 65.201 8.6168)" fill="#937342" width="0.2" height="44.4"/>
	</g>
</g>
<g>
	<g>
		<g>
			<path fill="#73392A" d="M13.1,37.7c-0.3,0.2-0.8,0.4-1.4,0.6c-0.6,0.2-1.1,0.3-1.5,0.4c-0.7,0.1-1.1-0.1-1.1-0.7
				c0,0,0-0.4-0.1-1.3c-0.1-1.2-0.3-2.5-0.5-4c0-0.2,0-0.3,0.1-0.4c0.1-0.1,0.2-0.2,0.4-0.2c0.2,0,0.3,0,0.4,0.1
				c0.1,0.1,0.2,0.2,0.2,0.4c0.2,1.5,0.4,2.8,0.5,4c0,0.2,0,0.6,0.1,1c0.6-0.1,1.5-0.4,2.4-0.9c0.1,0,0.1,0,0.2-0.1
				c0.2,0,0.3,0,0.4,0.1c0.1,0.1,0.2,0.2,0.2,0.4C13.4,37.4,13.4,37.6,13.1,37.7z"/>
		</g>
		<g>
			<path fill="#73392A" d="M17.5,37.4c-0.1,0-0.3-0.1-0.7-0.3c-0.2,0.2-0.4,0.3-0.6,0.4c-0.2,0.1-0.3,0.1-0.5,0.2
				c-0.7,0.1-1.2,0-1.6-0.3c-0.4-0.3-0.6-0.8-0.8-1.5c-0.1-0.7,0-1.3,0.5-1.8c0.4-0.5,1-0.9,1.6-1c0.3,0,0.6,0,0.9,0.1
				c0.4,0.1,0.7,0.3,0.7,0.5c0,0.1,0,0.2-0.1,0.3c0,0.1,0,0.3,0,0.4c0,0.2,0,0.4,0.1,0.6c0.1,0.5,0.2,0.9,0.3,1.1
				c0,0,0.1,0.2,0.3,0.4c0.1,0.2,0.2,0.3,0.2,0.4c0,0.1,0,0.3-0.1,0.4C17.8,37.3,17.7,37.4,17.5,37.4z M16,34.8c0-0.1,0-0.2,0-0.3
				c0-0.1,0-0.2,0-0.4c-0.1,0-0.1,0-0.2,0c0,0-0.1,0-0.1,0c-0.4,0.1-0.7,0.3-0.9,0.6c-0.2,0.3-0.3,0.7-0.3,1.1
				c0.1,0.4,0.2,0.6,0.3,0.8c0.2,0.2,0.4,0.2,0.6,0.2c0.2,0,0.3-0.1,0.5-0.2c0.1-0.1,0.3-0.2,0.4-0.3C16.2,35.6,16.1,35.2,16,34.8z"
				/>
		</g>
		<g>
			<path fill="#73392A" d="M20.9,32.4c-0.1-0.9-0.2-1.6-0.2-1.9c0-0.3,0.1-0.5,0.5-0.6c0.2,0,0.3,0,0.4,0.1c0.1,0.1,0.2,0.2,0.2,0.4
				c0.1,0.4,0.1,1,0.2,1.8c0.1,0.8,0.1,1.4,0.2,1.8c0.2,1,0.3,1.6,0.4,1.9c0,0,0,0.1,0,0.1c0,0.2,0,0.3-0.1,0.4
				c-0.1,0.1-0.2,0.2-0.4,0.2c-0.2,0-0.4,0-0.5-0.2c-0.2,0.1-0.3,0.2-0.5,0.3c-0.2,0.1-0.4,0.1-0.6,0.2c-0.6,0.1-1.2,0-1.6-0.3
				c-0.5-0.3-0.8-0.8-0.9-1.4c-0.1-0.7,0-1.4,0.3-1.9c0.3-0.5,0.8-0.8,1.5-0.9c0.2,0,0.4,0,0.6,0C20.7,32.3,20.8,32.4,20.9,32.4z
				 M21.1,33.7c-0.1-0.2-0.3-0.3-0.4-0.3c-0.2-0.1-0.3-0.1-0.5,0c-0.4,0.1-0.7,0.2-0.9,0.5c-0.2,0.3-0.2,0.6-0.1,1.1
				c0,0.3,0.2,0.5,0.5,0.7c0.3,0.2,0.5,0.2,0.8,0.2c0.2,0,0.4-0.1,0.5-0.2c0.1,0,0.2-0.2,0.3-0.3c0,0,0.1-0.1,0.1-0.1
				C21.3,35.1,21.2,34.6,21.1,33.7z"/>
		</g>
		<g>
			<path fill="#73392A" d="M26.5,32.7c0,0.4-0.1,0.7-0.5,0.7c-0.3,0.1-0.5-0.1-0.6-0.4l-0.1-0.4c-0.6,0.2-1,0.6-1.2,1.2l0.3,2.1
				c0,0.2,0,0.3-0.1,0.4c-0.1,0.1-0.2,0.2-0.4,0.2c-0.2,0-0.3,0-0.4-0.1c-0.1-0.1-0.2-0.2-0.2-0.4L23,33.3c0-0.1,0-0.2-0.1-0.4
				c0-0.2,0-0.3-0.1-0.4c0-0.2,0-0.3,0.1-0.4c0.1-0.1,0.2-0.2,0.4-0.2c0.3,0,0.5,0.1,0.6,0.4c0.4-0.4,0.9-0.7,1.5-0.8
				c0.5-0.1,0.9,0.2,1,1C26.5,32.6,26.5,32.7,26.5,32.7z"/>
		</g>
		<g>
			<path fill="#73392A" d="M27.7,30.5c-0.2,0-0.3,0-0.5-0.1C27.1,30.3,27,30.2,27,30c0-0.2,0-0.3,0.1-0.5c0.1-0.1,0.3-0.2,0.4-0.2
				c0.2,0,0.3,0,0.5,0.1c0.1,0.1,0.2,0.2,0.3,0.4c0,0.2,0,0.3-0.1,0.5C28,30.4,27.9,30.5,27.7,30.5z M28.6,33.4
				c0,0.2,0.1,0.4,0.1,0.7c0.1,0.3,0.1,0.6,0.1,0.7c0,0.2,0,0.3-0.1,0.4c-0.1,0.1-0.2,0.2-0.4,0.2c-0.2,0-0.3,0-0.4-0.1
				c-0.1-0.1-0.2-0.2-0.2-0.4c0-0.2-0.1-0.4-0.1-0.7c-0.1-0.3-0.1-0.6-0.1-0.7c0-0.2-0.1-0.5-0.1-0.9c0-0.4-0.1-0.7-0.1-0.9
				c0-0.2,0-0.3,0.1-0.4c0.1-0.1,0.2-0.2,0.4-0.2c0.2,0,0.3,0,0.4,0.1c0.1,0.1,0.2,0.2,0.2,0.4c0,0.2,0.1,0.5,0.1,0.9
				C28.5,32.9,28.5,33.2,28.6,33.4z"/>
		</g>
	</g>
	<g>
		<g>
			<path fill="#73392A" d="M19.4,39.7c-0.2,0-0.6,0.1-1,0.1c-0.4,0-0.8,0.1-1,0.1c0.1,0.3,0.2,0.9,0.3,1.7c0.2,0.7,0.3,1.3,0.3,1.7
				c0,0.1,0,0.2,0.1,0.4c0,0.2,0.1,0.3,0.1,0.4c0,0.2,0,0.4-0.1,0.6c-0.1,0.2-0.2,0.4-0.4,0.4c-0.2,0-0.3,0-0.4-0.1
				c-0.1-0.1-0.2-0.2-0.2-0.4c0,0,0-0.1,0-0.2c0-0.1,0-0.1,0-0.2c0-0.1-0.1-0.3-0.1-0.6c-0.1-0.3-0.1-0.4-0.1-0.6
				c0-0.4-0.1-0.9-0.3-1.5c-0.2-0.7-0.3-1.2-0.3-1.5L16,40c-0.6,0.1-1.1,0.1-1.5,0.1c-0.3,0-0.5-0.2-0.5-0.5c0-0.1,0-0.3,0.1-0.4
				c0.1-0.1,0.2-0.2,0.4-0.2c0.1,0,0.3,0,0.7,0c0.3,0,0.5,0,0.7,0c0.2,0,0.4-0.1,0.8-0.1c0.3,0,0.6-0.1,0.8-0.1
				c0.2,0,0.5-0.1,0.9-0.1c0.4,0,0.7-0.1,0.9-0.1c0.2,0,0.3,0,0.4,0.1c0.1,0.1,0.2,0.2,0.2,0.4c0,0.2,0,0.3-0.1,0.4
				C19.7,39.6,19.6,39.6,19.4,39.7z"/>
		</g>
		<g>
			<path fill="#73392A" d="M23.1,44.4c-0.7,0.1-1.2,0-1.7-0.3c-0.5-0.3-0.8-0.7-0.9-1.4c-0.1-0.7,0-1.3,0.3-1.8
				c0.3-0.6,0.8-0.9,1.5-1c0.5-0.1,0.9,0,1.2,0.1c0.4,0.1,0.7,0.4,0.7,0.9c0,0.3-0.1,0.6-0.4,0.9c-0.1,0.1-0.4,0.3-0.9,0.6l-1.3,0.8
				c0.2,0.1,0.3,0.2,0.5,0.3c0.2,0,0.4,0.1,0.7,0c0.4,0,0.7-0.2,0.9-0.3c0.2-0.2,0.4-0.3,0.5-0.3c0.3,0,0.4,0.1,0.5,0.4
				c0,0.3-0.2,0.6-0.6,0.9C24,44.2,23.6,44.3,23.1,44.4z M22.6,40.9c-0.3,0-0.5,0.1-0.6,0.3c-0.2,0.2-0.3,0.5-0.3,0.8
				c0.3-0.2,0.6-0.3,0.9-0.5c0.3-0.2,0.6-0.4,0.8-0.6C23.1,40.9,22.9,40.9,22.6,40.9z"/>
		</g>
		<g>
			<path fill="#73392A" d="M27.2,44.4c0-0.3-0.2-1-0.4-2.3c-0.3-1.2-0.4-1.9-0.4-2.2c0-0.2,0-0.3,0.1-0.5c0.1-0.2,0.2-0.3,0.4-0.3
				c0.1,0,0.3,0,0.4,0.1c0.1,0.1,0.2,0.2,0.3,0.3c0.1,0.5,0.2,1.3,0.4,2.3c0.3,1.3,0.4,2.1,0.4,2.4c0.1,0.4,0,0.8-0.2,1.1
				c-0.2,0.4-0.5,0.6-1,0.7c-0.7,0.1-1.3-0.3-1.8-1.2c-0.1-0.1-0.1-0.2-0.1-0.2c0-0.2,0-0.3,0.1-0.4c0.1-0.1,0.2-0.2,0.4-0.2
				c0.2,0,0.3,0.1,0.5,0.2c0.1,0.2,0.2,0.3,0.4,0.5C26.7,45,26.9,45,27,45C27.1,45,27.2,44.8,27.2,44.4z M26.6,38.7
				c-0.2,0-0.3,0-0.5-0.1c-0.1-0.1-0.2-0.2-0.2-0.4c0-0.2,0-0.3,0.1-0.5c0.1-0.1,0.3-0.2,0.4-0.2c0.2,0,0.3,0,0.5,0.1
				c0.1,0.1,0.2,0.2,0.3,0.4c0,0.2,0,0.3-0.1,0.5C26.9,38.6,26.8,38.7,26.6,38.7z"/>
		</g>
		<g>
			<path fill="#73392A" d="M32.8,43.1c-0.1,0-0.3-0.1-0.7-0.3c-0.2,0.2-0.4,0.3-0.6,0.4c-0.2,0.1-0.3,0.1-0.5,0.2
				c-0.7,0.1-1.2,0-1.6-0.3c-0.4-0.3-0.6-0.8-0.7-1.5c-0.1-0.7,0.1-1.3,0.5-1.8c0.4-0.5,1-0.8,1.7-0.9c0.3,0,0.6,0,0.9,0.1
				c0.4,0.1,0.7,0.3,0.7,0.5c0,0.1,0,0.2-0.1,0.3c0,0.1,0,0.3,0,0.4c0,0.2,0,0.4,0.1,0.6c0.1,0.5,0.2,0.9,0.3,1.1
				c0,0,0.1,0.2,0.2,0.4c0.1,0.2,0.2,0.3,0.2,0.4c0,0.1,0,0.3-0.1,0.4C33,43,32.9,43.1,32.8,43.1z M31.4,40.5c0-0.1,0-0.2,0-0.3
				c0-0.1,0-0.2,0-0.4c-0.1,0-0.1,0-0.2,0c0,0-0.1,0-0.1,0c-0.4,0-0.7,0.2-0.9,0.6c-0.2,0.3-0.3,0.7-0.3,1.1c0,0.4,0.2,0.6,0.3,0.8
				c0.2,0.2,0.4,0.2,0.6,0.2c0.2,0,0.3-0.1,0.5-0.1c0.1-0.1,0.3-0.2,0.4-0.3C31.5,41.3,31.4,40.8,31.4,40.5z"/>
		</g>
		<g>
			<path fill="#73392A" d="M36.4,39.4c-0.3,0-0.5-0.1-0.5-0.3c-0.1,0-0.2,0-0.3,0c-0.7,0.1-1,0.2-1,0.4c0,0.1,0.2,0.2,0.7,0.4
				c0.6,0.2,1,0.3,1.2,0.4c0.4,0.2,0.7,0.5,0.7,0.9c0.1,0.5-0.1,0.9-0.5,1.2c-0.3,0.2-0.8,0.4-1.3,0.5c-0.4,0-0.7,0-1,0
				c-0.4-0.1-0.7-0.3-0.7-0.6c0-0.3,0.1-0.4,0.4-0.5c0.1,0,0.3,0,0.6,0c0.2,0,0.4,0.1,0.6,0c0.6-0.1,0.8-0.2,0.8-0.4
				c0-0.1-0.2-0.3-0.6-0.4c-0.6-0.2-1-0.3-1.2-0.4c-0.4-0.2-0.7-0.5-0.7-0.9c-0.1-0.5,0.2-1,0.7-1.2c0.3-0.2,0.8-0.3,1.5-0.4
				c0.3,0,0.5,0,0.6,0c0.2,0.1,0.3,0.2,0.3,0.5C36.7,39.1,36.6,39.3,36.4,39.4z"/>
		</g>
	</g>
</g>
<g>
	
		<rect x="26.7" y="25.8" transform="matrix(0.1451 0.9894 -0.9894 0.1451 66.6493 11.2501)" fill="#937342" width="0.2" height="36.7"/>
</g>
<g>
	<g>
		<path fill="#937342" d="M34.4,35.1l-3-0.7v-2.1l1-0.4l3,0.7v2.1L34.4,35.1z M31.7,34.2l2.7,0.7l0.8-0.4v-1.8l-2.7-0.6l-0.8,0.3
			V34.2z"/>
	</g>
	<g>
		<path fill="#937342" d="M34.5,35.1l-3.1-0.8v-2.1l3.1,0.7V35.1z M31.7,34.2l2.6,0.7v-1.7l-2.6-0.6V34.2z"/>
	</g>
	<g>
		
			<rect x="34.7" y="32.3" transform="matrix(0.3984 0.9172 -0.9172 0.3984 51.0523 -12.2461)" fill="#937342" width="0.2" height="1"/>
	</g>
</g>
<text transform="matrix(0.8925 0 0 1 44.1254 20.3213)"><tspan x="0" y="0" fill="#010000" font-family="'BankGothicBT-Medium'" font-size="17.5817">Ladrillera Industrial</tspan><tspan x="33.8" y="17.1" fill="#010000" font-family="'BankGothicBT-Medium'" font-size="17.5817"> Agua Caliente</tspan></text>
</svg>
